<svg width="119" height="88" viewBox="0 0 119 88" fill="none" xmlns="http://www.w3.org/2000/svg">
<path d="M38.5159 63.8984C39.3641 61.4738 39.8197 58.6517 39.8197 55.5065C39.8197 43.1344 35.5662 37.6163 26.0306 37.6163C16.4951 37.6163 12.2416 43.1347 12.2416 55.5065C12.2416 58.6304 12.6912 61.4316 13.5246 63.8439C12.5028 64.1999 11.1565 64.7183 9.73873 65.4C5.61713 67.3931 3.03605 69.7605 2.06482 72.435C-0.980754 80.8415 0.227166 87.7105 0.281124 88L3.8183 87.3427C3.80631 87.2824 2.73029 81.1641 5.44613 73.6739C6.06964 71.9554 8.07493 70.2275 11.2467 68.6868C12.7004 67.9815 14.1001 67.4654 15.0536 67.1458C17.4517 71.1169 21.2587 73.3997 26.0306 73.3997C30.7789 73.3997 34.5741 71.1381 36.9719 67.203C37.9012 67.5197 39.1993 68.0053 40.5542 68.6624C43.7557 70.2094 45.7789 71.9431 46.4087 73.6739C49.1034 81.1101 48.0452 87.2852 48.0363 87.3427L51.5735 88C51.6274 87.7105 52.8325 80.8444 49.7869 72.4347C48.1082 67.794 41.8552 65.0592 38.5159 63.9013M26.0306 69.7812C18.5158 69.7812 15.8388 62.4117 15.8388 55.5094C15.8388 43.6263 19.7357 41.2379 26.0306 41.2379C32.3256 41.2379 36.2225 43.626 36.2225 55.5097C36.2225 62.4117 33.5458 69.7841 26.0306 69.7841M116.934 72.435C115.255 67.7942 109.002 65.0592 105.662 63.9013C106.511 61.4741 106.967 58.6546 106.967 55.5065C106.967 43.1344 102.713 37.6163 93.1775 37.6163C83.6423 37.6163 79.3885 43.1347 79.3885 55.5065C79.3885 58.6304 79.8381 61.4316 80.6715 63.8439C79.6492 64.1999 78.3034 64.7183 76.8854 65.4C72.7638 67.3931 70.1827 69.7605 69.2115 72.435C66.1659 80.8415 67.3738 87.7105 67.428 88L70.9652 87.3427C70.9532 87.2824 69.8769 81.1641 72.5928 73.6739C73.2163 71.9554 75.2218 70.2275 78.3933 68.6868C79.847 67.9815 81.247 67.4654 82.2003 67.1458C84.5984 71.1169 88.4053 73.3997 93.1775 73.3997C97.9255 73.3997 101.72 71.1381 104.119 67.203C105.048 67.5197 106.346 68.0053 107.701 68.6624C110.902 70.2094 112.926 71.9431 113.555 73.6739C116.25 81.1101 115.192 87.2852 115.183 87.3427L118.72 88C118.774 87.7105 119.979 80.8447 116.934 72.435ZM93.1775 69.7812C85.6626 69.7812 82.9856 62.4086 82.9856 55.5068C82.9856 43.6229 86.8825 41.235 93.1775 41.235C99.4725 41.235 103.369 43.6229 103.369 55.5068C103.369 62.4086 100.692 69.7812 93.1775 69.7812ZM84.3106 13.4908L80.195 17.5406L93.7083 20.773L90.7914 7.11347L86.8888 10.9579C83.4332 7.65944 79.4138 5.01577 75.0242 3.15416C70.1126 1.0607 64.8309 -0.012146 59.4966 0.000103727C49.2557 -0.0181109 39.4035 3.94327 31.9967 11.0573L27.9916 7.11635L25.0722 20.7759L38.5823 17.5435L34.5713 13.5933C41.3006 7.17613 50.2239 3.60514 59.4966 3.61854C68.7196 3.60101 77.5998 7.13315 84.3168 13.4908" fill="#E60000"/>
</svg>
